<svg width="5735" height="1481" viewBox="0 0 5735 1481" fill="none" xmlns="http://www.w3.org/2000/svg">
<rect width="1481" height="1481" rx="250.5" fill="white"/>
<path d="M1019.37 613.298C1235.97 588.714 1405.39 578.951 1436 589C1466.61 599.049 1421.5 708 1408 727C1394.5 746 1387 745 1380.4 747.584C1373.8 750.168 1333.87 762.226 1290.32 768.444C1288.58 768.697 1273.19 747.29 1273.19 747.29L1195.43 783.408L1101.85 798.274C1101.85 798.274 1097.68 810.342 1094.81 810.809C1083.06 812.703 531.098 902.181 497.842 907.577C483.051 909.967 466.692 889.196 448.406 892.16C440.339 893.464 361.782 904.87 335.43 909.152C309.077 913.42 307.443 914.525 307.443 914.525L309.946 929.956C301.498 931.694 165.754 958.468 148.516 961.251C142.838 962.543 112.5 943.499 112.5 943.499L64.4999 947.499C64.4999 947.499 104.5 911.498 105.5 899.499C106.5 887.5 77.4999 860.5 88.9999 848C100.5 835.5 185.863 794.403 185.863 794.403C194.5 783.499 158.5 775.499 129.5 763.499L1019.37 613.298Z" fill="#FD683E"/>
<path d="M948.26 559.223L1053.34 615.647L460.073 721.119C460.073 721.119 530.912 636.041 547.834 617.844C564.753 599.648 570.781 586.887 592.545 580.42C609.685 575.318 808.83 531.846 861.891 530.598C893.116 529.864 948.26 559.223 948.26 559.223Z" fill="#FD683E"/>
<circle cx="384.666" cy="885.961" r="70" transform="rotate(-4.78939 384.666 885.961)" fill="#FD683E"/>
<circle cx="1199.01" cy="792.175" r="79.5" transform="rotate(-4.78939 1199.01 792.175)" fill="#FD683E"/>
<path d="M1842.98 520.68H2001.7C2067.4 520.68 2118.18 533.48 2154.02 559.08C2190.28 584.68 2208.42 620.52 2208.42 666.6C2208.42 695.613 2199.46 721 2181.54 742.76C2164.04 764.52 2139.94 781.373 2109.22 793.32C2078.92 804.84 2045.22 810.6 2008.1 810.6H1981.22V961H1842.98V520.68ZM2008.74 721.64C2031.35 721.64 2048.84 716.947 2061.22 707.56C2073.59 698.173 2079.78 684.52 2079.78 666.6C2079.78 648.68 2073.59 635.24 2061.22 626.28C2049.27 617.32 2031.78 612.84 2008.74 612.84H1981.22V720.36C1989.75 721.213 1998.92 721.64 2008.74 721.64ZM2444.84 966.12C2409 966.12 2381.06 954.6 2361 931.56C2340.95 908.52 2330.92 877.16 2330.92 837.48V640.36H2466.6V831.72C2466.6 841.533 2469.16 849.213 2474.28 854.76C2479.83 859.88 2486.87 862.44 2495.4 862.44C2503.94 862.44 2512.68 859.88 2521.64 854.76L2528.68 943.72C2519.3 950.973 2506.92 956.52 2491.56 960.36C2476.63 964.2 2461.06 966.12 2444.84 966.12ZM2398.76 592.36C2378.71 592.36 2361.64 586.173 2347.56 573.8C2333.91 561 2327.08 545.427 2327.08 527.08C2327.08 508.733 2334.34 493.373 2348.84 481C2363.35 468.627 2379.99 462.44 2398.76 462.44C2418.39 462.44 2435.24 468.84 2449.32 481.64C2463.83 494.44 2471.08 509.587 2471.08 527.08C2471.08 545.853 2463.83 561.427 2449.32 573.8C2434.82 586.173 2417.96 592.36 2398.76 592.36ZM2652.15 615.2H2799.85V676.1C2822.25 628.967 2860.29 605.4 2913.95 605.4C2945.22 605.4 2973.92 613.333 3000.05 629.2C3026.65 644.6 3047.42 666.067 3062.35 693.6C3077.75 721.133 3085.45 751.933 3085.45 786C3085.45 820.067 3077.52 850.867 3061.65 878.4C3046.25 905.933 3025.25 927.633 2998.65 943.5C2972.52 958.9 2944.52 966.6 2914.65 966.6C2861.45 966.6 2823.19 943.033 2799.85 895.9V1052L2652.15 1080V615.2ZM2869.85 856C2888.99 856 2905.32 849 2918.85 835C2932.39 821 2939.15 804.667 2939.15 786C2939.15 766.4 2932.15 749.833 2918.15 736.3C2904.62 722.767 2888.52 716 2869.85 716C2850.72 716 2834.39 722.767 2820.85 736.3C2807.32 749.367 2800.55 765 2800.55 783.2V786C2800.55 805.6 2807.32 822.167 2820.85 835.7C2834.85 849.233 2851.19 856 2869.85 856ZM3392.63 966.12C3357.22 966.12 3325.65 959.08 3297.91 945C3270.61 930.493 3249.27 910.867 3233.91 886.12C3218.55 860.947 3210.87 832.573 3210.87 801C3210.87 768.573 3218.77 739.773 3234.55 714.6C3250.34 689.427 3271.67 670.013 3298.55 656.36C3325.43 642.707 3355.3 635.88 3388.15 635.88C3419.73 635.88 3446.61 642.92 3468.79 657C3491.41 670.653 3508.26 689.427 3519.35 713.32C3530.45 736.787 3535.99 763.24 3535.99 792.68C3535.99 800.36 3535.57 805.907 3534.71 809.32L3342.71 834.28C3347.83 849.213 3356.15 860.093 3367.67 866.92C3379.19 873.32 3394.34 876.52 3413.11 876.52C3442.13 876.52 3473.49 869.053 3507.19 854.12L3523.19 939.88C3483.51 957.373 3439.99 966.12 3392.63 966.12ZM3436.79 753.64C3429.97 726.76 3413.75 713.32 3388.15 713.32C3372.79 713.32 3360.63 719.08 3351.67 730.6C3342.71 742.12 3338.02 757.053 3337.59 775.4L3436.79 753.64ZM4008.74 971.24C3928.52 971.24 3879.46 934.12 3861.54 859.88L3845.54 793.96H3815.46V961H3675.3V520.68H3869.22C3905.91 520.68 3938.12 526.227 3965.86 537.32C3994.02 547.987 4015.78 563.133 4031.14 582.76C4046.5 602.387 4054.18 625 4054.18 650.6C4054.18 679.187 4047.14 703.293 4033.06 722.92C4019.4 742.12 3998.07 757.907 3969.06 770.28C3972.04 786.493 3975.46 801.213 3979.3 814.44C3984.42 830.653 3991.46 841.96 4000.42 848.36C4009.38 854.76 4022.39 857.96 4039.46 857.96C4045.43 857.96 4054.82 857.107 4067.62 855.4V959.72C4047.56 967.4 4027.94 971.24 4008.74 971.24ZM3839.78 704.36C3871.35 704.36 3893.54 700.947 3906.34 694.12C3919.56 686.867 3926.18 674.707 3926.18 657.64C3926.18 643.133 3920.84 632.68 3910.18 626.28C3899.51 619.453 3882.66 616.04 3859.62 616.04H3815.46V704.36H3839.78ZM4308.41 966.12C4272.57 966.12 4244.63 954.6 4224.57 931.56C4204.52 908.52 4194.49 877.16 4194.49 837.48V640.36H4330.17V831.72C4330.17 841.533 4332.73 849.213 4337.85 854.76C4343.4 859.88 4350.44 862.44 4358.97 862.44C4367.51 862.44 4376.25 859.88 4385.21 854.76L4392.25 943.72C4382.87 950.973 4370.49 956.52 4355.13 960.36C4340.2 964.2 4324.63 966.12 4308.41 966.12ZM4262.33 592.36C4242.28 592.36 4225.21 586.173 4211.13 573.8C4197.48 561 4190.65 545.427 4190.65 527.08C4190.65 508.733 4197.91 493.373 4212.41 481C4226.92 468.627 4243.56 462.44 4262.33 462.44C4281.96 462.44 4298.81 468.84 4312.89 481.64C4327.4 494.44 4334.65 509.587 4334.65 527.08C4334.65 545.853 4327.4 561.427 4312.89 573.8C4298.39 586.173 4281.53 592.36 4262.33 592.36ZM4652.88 966.12C4623.87 966.12 4597.42 958.44 4573.52 943.08C4550.06 927.72 4531.5 907.453 4517.84 882.28C4504.19 856.68 4497.36 829.587 4497.36 801C4497.36 770.707 4504.4 742.973 4518.48 717.8C4532.99 692.2 4552.19 672.147 4576.08 657.64C4600.4 643.133 4626.22 635.88 4653.52 635.88C4678.27 635.88 4699.18 641 4716.24 651.24C4733.74 661.48 4747.82 677.907 4758.48 700.52V539.24L4893.52 519.4V961H4758.48V901.48C4738.43 944.573 4703.23 966.12 4652.88 966.12ZM4695.12 865C4713.04 865 4727.98 858.6 4739.92 845.8C4752.3 833 4758.48 818.067 4758.48 801V798.44C4758.48 781.8 4752.08 767.507 4739.28 755.56C4726.48 743.187 4711.76 737 4695.12 737C4677.2 737 4662.06 743.4 4649.68 756.2C4637.74 768.573 4631.76 783.507 4631.76 801C4631.76 818.92 4637.95 834.067 4650.32 846.44C4663.12 858.813 4678.06 865 4695.12 865ZM5207.93 966.12C5172.52 966.12 5140.95 959.08 5113.21 945C5085.91 930.493 5064.57 910.867 5049.21 886.12C5033.85 860.947 5026.17 832.573 5026.17 801C5026.17 768.573 5034.07 739.773 5049.85 714.6C5065.64 689.427 5086.97 670.013 5113.85 656.36C5140.73 642.707 5170.6 635.88 5203.45 635.88C5235.03 635.88 5261.91 642.92 5284.09 657C5306.71 670.653 5323.56 689.427 5334.65 713.32C5345.75 736.787 5351.29 763.24 5351.29 792.68C5351.29 800.36 5350.87 805.907 5350.01 809.32L5158.01 834.28C5163.13 849.213 5171.45 860.093 5182.97 866.92C5194.49 873.32 5209.64 876.52 5228.41 876.52C5257.43 876.52 5288.79 869.053 5322.49 854.12L5338.49 939.88C5298.81 957.373 5255.29 966.12 5207.93 966.12ZM5252.09 753.64C5245.27 726.76 5229.05 713.32 5203.45 713.32C5188.09 713.32 5175.93 719.08 5166.97 730.6C5158.01 742.12 5153.32 757.053 5152.89 775.4L5252.09 753.64ZM5481 644.84H5616.04V710.12C5625.85 684.947 5639.08 666.387 5655.72 654.44C5672.78 642.067 5692.62 635.88 5715.24 635.88L5733.8 740.2C5693.26 740.2 5663.4 744.68 5644.2 753.64C5625.42 762.173 5616.04 775.827 5616.04 794.6V961H5481V644.84Z" fill="#FD683E"/>
</svg>
