<svg width="5195" height="1242" viewBox="0 0 5195 1242" fill="none" xmlns="http://www.w3.org/2000/svg">
<g clip-path="url(#clip0_154_40)">
<path d="M118.03 1123.95H0.409602C0.279579 1122.71 0.10955 1121.44 0.0295363 1120.17C-0.030474 1119.01 0.0195346 1117.84 0.0195346 1116.67C0.0195346 937.438 0.0195346 758.219 0.0195346 578.99C0.0195346 506.747 15.8123 438.114 48.2479 373.603C92.4755 285.634 158.257 218.332 245.002 171.707C289.409 147.839 336.658 132.094 386.396 124.021C423.383 118.009 460.589 116.479 498.006 119.51C555.105 124.131 609.485 138.646 661.024 163.614C734.296 199.116 794.167 250.402 840.535 317.314C879.171 373.083 904.106 434.523 915.528 501.425C921.669 537.407 923.749 573.639 921.088 610.03C913.157 718.316 872.38 812.527 799.157 892.693C798.047 893.904 796.977 895.154 795.737 896.565C839.454 972.309 883.052 1047.84 927 1124H694.699C672.716 1085.94 650.582 1047.61 628.438 1009.27C519.329 1049.88 410.28 1050.73 300.291 1011.83C299.841 1018.2 300.131 1024.28 300.081 1030.32C300.031 1036.65 300.071 1042.99 300.071 1049.32V1123.99H182.061V1118.09C182.061 1045.23 182.061 972.369 182.061 899.515C182.061 793.151 182.011 686.776 182.081 580.411C182.131 508.487 206.085 445.456 254.153 392.069C296.241 345.334 348.5 315.534 410.56 304.87C503.006 288.985 584.42 313.153 653.132 377.024C697.31 418.098 725.065 469.084 735.286 528.634C751.049 620.504 727.335 701.581 664.214 770.173C622.247 815.768 569.888 843.767 508.687 854.051C435.265 866.385 367.283 851.72 305.082 810.656C303.832 809.836 302.552 809.056 301.282 808.276C301.182 808.216 300.981 808.306 300.351 808.376C300.271 809.486 300.101 810.726 300.101 811.967C300.081 833.974 300.171 855.981 300.001 877.988C299.971 881.39 301.212 882.97 304.082 884.441C339.288 902.376 376.405 914.09 415.601 919.262C524.8 933.677 633.429 895.684 709.082 816.188C756.91 765.922 787.185 706.512 799.037 638.14C818.191 527.603 783.165 415.307 702.401 335.43C654.212 287.775 596.783 256.985 530.461 243.11C496.975 236.108 463.129 234.277 429.014 237.608C352.64 245.071 285.909 274.52 229.379 326.277C174.32 376.684 139.524 438.874 124.551 512.038C119.99 534.306 118.03 556.853 118.04 579.601C118.09 758.659 118.07 937.718 118.07 1116.78V1123.97L118.03 1123.95ZM622.117 579.31C622.197 490.571 549.984 418.168 461.279 418.037C372.424 417.907 300.191 489.931 300.061 578.78C299.931 667.919 371.574 739.743 460.499 740.213C546.654 740.673 621.547 671.331 622.127 579.31H622.117Z" fill="#FD683E"/>
</g>
<path d="M1267.06 871V381H1502.96C1548.69 381 1588.12 388.467 1621.26 403.4C1654.86 418.333 1680.76 439.8 1698.96 467.8C1717.16 495.333 1726.26 528 1726.26 565.8C1726.26 603.6 1717.16 636.267 1698.96 663.8C1680.76 691.333 1654.86 712.8 1621.26 728.2C1588.12 743.133 1548.69 750.6 1502.96 750.6H1358.76L1432.26 679.9V871H1267.06ZM1432.26 698.1L1358.76 623.2H1492.46C1515.32 623.2 1532.12 618.067 1542.86 607.8C1554.06 597.533 1559.66 583.533 1559.66 565.8C1559.66 548.067 1554.06 534.067 1542.86 523.8C1532.12 513.533 1515.32 508.4 1492.46 508.4H1358.76L1432.26 433.5V698.1ZM1766.44 871V381H1931.64V871H1766.44ZM1997.16 871V381H2233.06C2278.8 381 2318.23 388.467 2351.36 403.4C2384.96 418.333 2410.86 439.8 2429.06 467.8C2447.26 495.333 2456.36 528 2456.36 565.8C2456.36 603.6 2447.26 636.267 2429.06 663.8C2410.86 691.333 2384.96 712.8 2351.36 728.2C2318.23 743.133 2278.8 750.6 2233.06 750.6H2088.86L2162.36 679.9V871H1997.16ZM2162.36 698.1L2088.86 623.2H2222.56C2245.43 623.2 2262.23 618.067 2272.96 607.8C2284.16 597.533 2289.76 583.533 2289.76 565.8C2289.76 548.067 2284.16 534.067 2272.96 523.8C2262.23 513.533 2245.43 508.4 2222.56 508.4H2088.86L2162.36 433.5V698.1ZM2647.74 563H2866.14V682H2647.74V563ZM2658.94 746.4H2903.94V871H2496.54V381H2894.84V505.6H2658.94V746.4ZM2953.54 871V381H3189.44C3235.17 381 3274.6 388.467 3307.74 403.4C3341.34 418.333 3367.24 439.8 3385.44 467.8C3403.64 495.333 3412.74 528 3412.74 565.8C3412.74 603.6 3403.64 636.267 3385.44 663.8C3367.24 690.867 3341.34 711.633 3307.74 726.1C3274.6 740.567 3235.17 747.8 3189.44 747.8H3045.24L3118.74 679.9V871H2953.54ZM3246.84 871L3126.44 692.5H3301.44L3423.24 871H3246.84ZM3118.74 698.1L3045.24 623.2H3178.94C3201.8 623.2 3218.6 618.067 3229.34 607.8C3240.54 597.533 3246.14 583.533 3246.14 565.8C3246.14 548.067 3240.54 534.067 3229.34 523.8C3218.6 513.533 3201.8 508.4 3178.94 508.4H3045.24L3118.74 433.5V698.1ZM3461.12 871V381H3626.32V871H3461.12ZM3691.85 871V381H3933.35C3987.95 381 4036.01 391.033 4077.55 411.1C4119.08 430.7 4151.51 458.7 4174.85 495.1C4198.18 531.5 4209.85 574.9 4209.85 625.3C4209.85 676.167 4198.18 720.033 4174.85 756.9C4151.51 793.3 4119.08 821.533 4077.55 841.6C4036.01 861.2 3987.95 871 3933.35 871H3691.85ZM3857.05 742.2H3926.35C3949.68 742.2 3969.98 737.767 3987.25 728.9C4004.98 720.033 4018.75 706.967 4028.55 689.7C4038.35 671.967 4043.25 650.5 4043.25 625.3C4043.25 600.567 4038.35 579.567 4028.55 562.3C4018.75 545.033 4004.98 531.967 3987.25 523.1C3969.98 514.233 3949.68 509.8 3926.35 509.8H3857.05V742.2ZM4407.37 563H4625.77V682H4407.37V563ZM4418.57 746.4H4663.57V871H4256.17V381H4654.47V505.6H4418.57V746.4ZM4713.16 871V381H4949.06C4994.8 381 5034.23 388.467 5067.36 403.4C5100.96 418.333 5126.86 439.8 5145.06 467.8C5163.26 495.333 5172.36 528 5172.36 565.8C5172.36 603.6 5163.26 636.267 5145.06 663.8C5126.86 690.867 5100.96 711.633 5067.36 726.1C5034.23 740.567 4994.8 747.8 4949.06 747.8H4804.86L4878.36 679.9V871H4713.16ZM5006.46 871L4886.06 692.5H5061.06L5182.86 871H5006.46ZM4878.36 698.1L4804.86 623.2H4938.56C4961.43 623.2 4978.23 618.067 4988.96 607.8C5000.16 597.533 5005.76 583.533 5005.76 565.8C5005.76 548.067 5000.16 534.067 4988.96 523.8C4978.23 513.533 4961.43 508.4 4938.56 508.4H4804.86L4878.36 433.5V698.1Z" fill="#FD683E"/>
<defs>
<clipPath id="clip0_154_40">
<rect width="927" height="1006" fill="white" transform="translate(0 118)"/>
</clipPath>
</defs>
</svg>
