<?xml version="1.0" standalone="no"?>
<!DOCTYPE svg PUBLIC "-//W3C//DTD SVG 20010904//EN"
 "http://www.w3.org/TR/2001/REC-SVG-20010904/DTD/svg10.dtd">
<svg version="1.0" xmlns="http://www.w3.org/2000/svg"
 width="700.000000pt" height="700.000000pt" viewBox="0 0 700.000000 700.000000"
 preserveAspectRatio="xMidYMid meet">
<metadata>
Created by potrace 1.14, written by Peter Selinger 2001-2017
</metadata>
<g transform="translate(0.000000,700.000000) scale(0.100000,-0.100000)"
fill="#000000" stroke="none">
<path d="M3278 6996 c-1 -2 -42 -6 -89 -10 -47 -4 -95 -8 -105 -10 -10 -2 -44
-7 -74 -12 -30 -4 -57 -8 -60 -9 -3 -1 -25 -5 -50 -9 -268 -46 -589 -154 -840
-280 -333 -169 -587 -352 -846 -610 -261 -261 -431 -497 -602 -836 -86 -172
-93 -188 -150 -345 -81 -219 -123 -394 -167 -695 -16 -112 -19 -451 -19 -2220
l-1 -1955 410 0 410 0 1 1945 c1 2006 2 2074 34 2240 6 30 13 71 16 90 10 63
64 247 104 355 241 650 790 1184 1455 1413 259 89 494 127 790 127 198 -1 291
-10 470 -46 648 -132 1202 -520 1559 -1092 71 -113 162 -299 196 -397 7 -19
16 -44 21 -55 15 -37 51 -154 65 -215 17 -75 35 -164 39 -196 3 -21 7 -48 10
-59 10 -50 19 -191 19 -310 0 -172 -8 -275 -36 -430 -5 -33 -12 -73 -15 -88
-10 -63 -73 -269 -113 -372 -259 -663 -834 -1196 -1515 -1403 -105 -32 -207
-58 -265 -67 -19 -3 -46 -7 -60 -10 -172 -33 -561 -38 -693 -10 -12 2 -40 7
-62 9 -22 3 -52 8 -67 11 -16 3 -38 7 -50 9 -39 7 -80 17 -152 38 -38 11 -76
21 -85 23 -9 2 -47 16 -86 30 -38 15 -83 32 -100 37 -16 6 -70 31 -120 57
l-90 46 0 257 c0 293 -14 268 105 195 83 -51 274 -147 292 -147 8 0 18 -4 24
-9 13 -12 182 -65 274 -86 223 -50 530 -59 731 -20 13 3 39 7 59 10 33 5 50 8
98 19 253 57 528 191 744 363 369 293 657 781 714 1208 3 22 8 51 10 65 10 48
12 356 4 430 -25 215 -46 310 -102 475 -63 187 -189 411 -316 564 -50 61 -208
219 -263 266 -281 232 -575 371 -914 431 -114 20 -156 22 -345 19 -118 -2
-231 -6 -250 -9 -146 -24 -273 -53 -375 -87 -559 -186 -1026 -657 -1214 -1224
-22 -66 -43 -133 -46 -150 -5 -27 -23 -127 -41 -225 -4 -19 -8 -934 -10 -2032
l-3 -1998 412 0 412 0 -1 383 c0 210 1 385 3 388 1 4 50 -8 108 -27 112 -35
362 -99 430 -109 22 -3 67 -10 100 -15 109 -17 129 -20 220 -27 111 -9 401 -9
515 -1 72 6 272 32 320 42 8 1 33 6 55 10 50 10 229 54 270 66 17 5 78 25 138
45 59 19 114 35 121 35 11 0 277 -446 417 -699 14 -25 32 -56 40 -69 l14 -22
808 0 809 0 -28 47 c-25 43 -39 68 -87 153 -16 28 -153 267 -167 290 -43 73
-219 377 -243 420 -16 30 -38 67 -49 82 -10 14 -18 29 -18 32 0 3 -17 34 -38
68 -21 35 -50 83 -64 108 -14 25 -69 121 -122 213 l-97 168 48 56 c214 246
365 467 496 728 61 120 72 147 124 280 62 161 141 443 157 563 2 15 11 74 20
131 9 57 20 145 24 195 13 174 7 527 -13 647 -2 13 -9 58 -15 99 -27 179 -118
533 -160 625 -5 11 -23 54 -39 95 -98 252 -273 549 -467 795 -146 185 -379
407 -619 593 -28 21 -147 102 -150 102 -3 0 -29 15 -58 34 -175 112 -440 236
-662 311 -83 28 -278 81 -335 91 -14 3 -41 9 -60 14 -19 5 -55 11 -80 15 -25
3 -56 8 -70 10 -14 2 -52 7 -85 11 -33 3 -69 8 -80 11 -22 5 -511 13 -517 9z
m392 -2100 c348 -56 663 -291 824 -614 34 -66 83 -213 91 -272 4 -25 10 -65
15 -89 9 -48 6 -231 -5 -296 -60 -369 -292 -683 -620 -840 -99 -48 -230 -89
-322 -102 -73 -10 -272 -10 -338 0 -417 64 -771 369 -898 772 -110 349 -44
725 177 1014 172 226 448 392 709 427 23 4 44 8 46 10 11 10 245 3 321 -10z"/>
</g>
</svg>
